<svg xmlns="http://www.w3.org/2000/svg" xmlns:xlink="http://www.w3.org/1999/xlink" width="1366" height="768" viewBox="0 0 1366 768">
  <defs>
    <filter id="Area_DISPLAY_ELEMENTS:DEFAULT_" x="236" y="83" width="903" height="611" filterUnits="userSpaceOnUse">
      <feOffset dx="8" dy="8" input="SourceAlpha"/>
      <feGaussianBlur result="blur"/>
      <feFlood flood-opacity="0.102"/>
      <feComposite operator="in" in2="blur"/>
      <feComposite in="SourceGraphic"/>
    </filter>
    <clipPath id="clip-low-fid-signup">
      <rect width="1366" height="768"/>
    </clipPath>
  </defs>
  <g id="low-fid-signup" clip-path="url(#clip-low-fid-signup)">
    <rect width="1366" height="768" fill="#fbfbfb"/>
    <rect id="Background_STYLE:STYLE2_" data-name="Background [STYLE:STYLE2]" width="1366" height="768" fill="#ebebeb"/>
    <g id="Sign_Up" data-name="Sign Up" transform="translate(188 -44)">
      <g id="Card_DISPLAY_ELEMENTS_DEFAULT_" data-name="Card [DISPLAY_ELEMENTS=DEFAULT]" transform="translate(232.446 106.812)">
        <g transform="matrix(1, 0, 0, 1, -420.45, -62.81)" filter="url(#Area_DISPLAY_ELEMENTS:DEFAULT_)">
          <g id="Area_DISPLAY_ELEMENTS:DEFAULT_2" data-name="Area [DISPLAY_ELEMENTS:DEFAULT]" transform="translate(236 83)" fill="#fff" stroke="#cfcfcf" stroke-width="2">
            <rect width="895" height="603" stroke="none"/>
            <rect x="1" y="1" width="893" height="601" fill="none"/>
          </g>
        </g>
      </g>
      <g id="Illustration" transform="translate(143.955 281.713)">
        <path id="Path" d="M96.021,80.211c8.061.6,11.733,8.112,38.33-6.413S180.12-4.086,226.028,1.532s66.838,31.447,74.59,78.026-11.281,70.95-16.267,98.808-49.672,65.249-118.38,35.142S73.282,188.214,39.88,195.568s-54.941-31.6-24.214-78.335S87.959,79.615,96.021,80.211Z" transform="matrix(0.788, -0.616, 0.616, 0.788, -73.283, 150.675)" fill="#cfcfcf"/>
        <path id="Path-2" data-name="Path" d="M231.023,182.771H344.449A24.147,24.147,0,0,1,367.971,201.7l57.312,255.889a19.717,19.717,0,0,1-3.5,16.185,19.45,19.45,0,0,1-14.556,7.722l-116.6,5.783a25.783,25.783,0,0,1-26.6-21.271L231.516,285.1l-2.419.7-6.221-34.29,2.49-.627-9.075-50.5a15.015,15.015,0,0,1,3.255-12.288A14.806,14.806,0,0,1,231.023,182.771Z" transform="translate(-216.292 -170.478)" fill="#3c3c3c"/>
        <path id="Path-3" data-name="Path" d="M342.069,194.4h13.24a16.689,16.689,0,0,1,16.28,13.2L426.6,461.4a10.447,10.447,0,0,1-1.839,8.466,10.307,10.307,0,0,1-7.574,4.12L300.963,481.65A13.39,13.39,0,0,1,286.928,470.6L239.986,208.277a11.846,11.846,0,0,1,2.541-9.652,11.682,11.682,0,0,1,8.986-4.228h12.561a5.534,5.534,0,0,1,5.337,4.118h0a4.885,4.885,0,0,0,4.712,3.635h59.629a8.364,8.364,0,0,0,8.317-7.753Z" transform="translate(-228.844 -176.587)" fill="#cfcfcf"/>
        <ellipse id="Path-4" data-name="Path" cx="17.348" cy="17.462" rx="17.348" ry="17.462" transform="translate(250.087 54.4)" fill="#3c3c3c"/>
        <path id="Path-5" data-name="Path" d="M723.668,693.962l3.3,14.235h-8.014l-3.3-16.133Z" transform="translate(-437.518 -403.28)" fill="#737373"/>
        <path id="Path-6" data-name="Path" d="M641.668,696.064V709.35l-8.014.949V696.064Z" transform="translate(-394.173 -405.382)" fill="#737373"/>
        <path id="Path-7" data-name="Path" d="M811.133,450.932s-.943,20.4-1.886,21.828-9.428,21.828-9.428,21.828L795.577,481.3s6.6-10.914,5.657-17.082a71.368,71.368,0,0,1-.349-13.759Z" transform="translate(-522.627 -311.145)" fill="#737373"/>
        <ellipse id="Path-8" data-name="Path" cx="13.199" cy="13.286" rx="13.199" ry="13.286" transform="translate(248.437 63.865)" fill="#737373"/>
        <path id="Path-9" data-name="Path" d="M776.6,322.456s-.471,18.98,2.828,21.828-18.856.474-18.856.474,4.714-13.286.943-16.133S776.6,322.456,776.6,322.456Z" transform="translate(-504.126 -243.881)" fill="#737373"/>
        <path id="Path-10" data-name="Path" d="M725.934,362.167s2.828-5.22,6.6-4.745,16.028,1.424,16.5,2.373,1.885,4.271,2.828,5.22,8.014,2.373,8.485,8.067-16.97,40.333-16.97,40.333,2.357,8.067,1.886,9.965,2.357,7.592,1.886,9.965,7.071,16.608,3.3,35.114v29.894s12.728,51.722,8.957,55.518-16.5,1.424-18.856,0S728.29,480.8,728.29,480.8l-4.714-24.2-.471,53.145s.943,44.6-2.357,46.028-16.028,1.9-16.971-.949c-.735-2.22-4.338-61.3-5.888-87.2a97.371,97.371,0,0,1,2.076-26.656c1.962-8.958,4.81-19.482,8.055-23.753,6.128-8.067,9.9-33.69,9.9-33.69l-8.014-14.71s4.714-4.745,7.542-4.745S725.934,362.167,725.934,362.167Z" transform="translate(-470.897 -262.239)" fill="#3d3d3d"/>
        <path id="Path-11" data-name="Path" d="M814.263,383.456l2.486,1.7s1.757,30.564.342,32.462-11.246.972-11.987-.7S814.263,383.456,814.263,383.456Z" transform="translate(-527.642 -275.935)" fill="#3d3d3d"/>
        <path id="Path-12" data-name="Path" d="M687.669,439.081c1.38,9.636,2.589,18.213-4.466,25.973a132.646,132.646,0,0,1-23.822,20.77c-.865,2.307-13.569,19.252-14.216,12.493s3.743-12.058,9.98-17.773,14.963-18.117,19.887-24.922,2.9-11.048,2.726-16.732S685.733,439.15,687.669,439.081Z" transform="translate(-443.086 -303.772)" fill="#737373"/>
        <path id="Path-13" data-name="Path" d="M717.131,781.255s-.471,5.315-1.886,6.738-5.185,3.322-4.714,8.541,3.536,5.457,3.536,5.457l-.236-1.186,1.414.475.236.712h13.2a43.063,43.063,0,0,0-.236-7.355c-.471-2.373-.471-13.761-1.886-13.286s-5.185.949-6.128,2.847S716.66,785.431,717.131,781.255Z" transform="translate(-477.651 -484.974)" fill="#3d3d3d"/>
        <path id="Path-14" data-name="Path" d="M813.56,781.255s.471,5.315,1.886,6.738,5.185,3.322,4.714,8.541-3.535,5.457-3.535,5.457l.236-1.186-1.414.475-.236.712h-13.2a43.052,43.052,0,0,1,.236-7.355c.471-2.373.471-13.761,1.885-13.286s5.185.949,6.128,2.847S814.031,785.431,813.56,781.255Z" transform="translate(-525.997 -484.974)" fill="#3d3d3d"/>
        <path id="Path-15" data-name="Path" d="M723.449,378.456l-6.6,1.424s0,10.439-1.886,14.71-5.185,14.235-3.771,14.71,14.613,7.118,15.556,3.322S730.049,378.456,723.449,378.456Z" transform="translate(-477.84 -273.308)" fill="#3d3d3d"/>
        <ellipse id="Path-16" data-name="Path" cx="17.348" cy="17.462" rx="17.348" ry="17.462" transform="translate(268.88 31.409)" fill="#3c3c3c"/>
        <path id="Path-17" data-name="Path" d="M825.445,272.244a17.308,17.308,0,0,1-26.789-9.169,17.439,17.439,0,0,0,11.366,14.263,17.264,17.264,0,0,0,17.776-3.762,17.54,17.54,0,0,0,4.7-17.662,17.506,17.506,0,0,1-7.051,16.33Z" transform="translate(-524.255 -208.914)" fill="#3c3c3c"/>
        <ellipse id="Path-18" data-name="Path" cx="12.722" cy="12.805" rx="12.722" ry="12.805" transform="translate(259.339 61.967)" fill="#3c3c3c"/>
        <ellipse id="Path-19" data-name="Path" cx="11.276" cy="8.876" rx="11.276" ry="8.876" transform="translate(250.087 61.094)" fill="#3c3c3c"/>
        <ellipse id="Path-20" data-name="Path" cx="2.14" cy="3.811" rx="2.14" ry="3.811" transform="translate(256.215 75.255)" fill="#737373"/>
      </g>
      <g id="Group_49" data-name="Group 49" transform="translate(427)">
        <g id="Button_DISPLAY_ELEMENTS_Label_SIZE_MEDIUM_STATE_DEFAULT_STYLE_STYLE1_" data-name="Button [DISPLAY_ELEMENTS=Label][SIZE=MEDIUM][STATE=DEFAULT][STYLE=STYLE1]" transform="translate(108 492)">
          <rect id="Area_DISPLAY_ELEMENTS:Label_SIZE:MEDIUM_STATE:DEFAULT_STYLE:STYLE1_" data-name="Area [DISPLAY_ELEMENTS:Label][SIZE:MEDIUM][STATE:DEFAULT][STYLE:STYLE1]" width="328" height="48" fill="#3c3c3c"/>
          <text id="Label" transform="translate(164 30)" fill="#fcfcfc" font-size="16" font-family="NotoSans-SemiBold, Noto Sans" font-weight="600"><tspan x="-29.904" y="0">Sign Up</tspan></text>
        </g>
        <g id="Circle_Button_SIZE_MEDIUM_STATE_DEFAULT_STYLE_STYLE2_" data-name="Circle Button [SIZE=MEDIUM][STATE=DEFAULT][STYLE=STYLE2]" transform="translate(343 622)">
          <g id="Area_SIZE:MEDIUM_STATE:DEFAULT_STYLE:STYLE2_" data-name="Area [SIZE:MEDIUM][STATE:DEFAULT][STYLE:STYLE2]" fill="#fff" stroke="#3e3e3e" stroke-width="2">
            <rect width="48" height="48" rx="24" stroke="none"/>
            <rect x="1" y="1" width="46" height="46" rx="23" fill="none"/>
          </g>
          <g id="Icon_ICON_feather_twitter_SIZE_MEDIUM_STATE_DEFAULT_STYLE_STYLE2_" data-name="Icon [ICON=feather/twitter][SIZE=MEDIUM][STATE=DEFAULT][STYLE=STYLE2]" transform="translate(14 14)">
            <rect id="Area_ICON:feather_twitter_SIZE:MEDIUM_STATE:DEFAULT_STYLE:STYLE2_" data-name="Area [ICON:feather/twitter][SIZE:MEDIUM][STATE:DEFAULT][STYLE:STYLE2]" width="20" height="20" fill="rgba(253,73,198,0.35)" opacity="0"/>
            <g id="Icon" transform="translate(-1 -1)">
              <path id="_6a23d1bf-d688-4728-9794-409cceb49f28" data-name="6a23d1bf-d688-4728-9794-409cceb49f28" d="M20.909,2.727a9.9,9.9,0,0,1-2.854,1.391,4.073,4.073,0,0,0-7.146,2.727v.91A9.691,9.691,0,0,1,2.727,3.636S-.909,11.818,7.273,15.455A10.59,10.59,0,0,1,.909,17.273c8.182,4.545,18.182,0,18.182-10.455a4.056,4.056,0,0,0-.073-.754A7.017,7.017,0,0,0,20.909,2.727Z" transform="translate(0.092 0.126)" fill="none" stroke="#3e3e3e" stroke-linecap="round" stroke-linejoin="round" stroke-width="1.818"/>
            </g>
          </g>
        </g>
        <g id="Circle_Button_SIZE_MEDIUM_STATE_DEFAULT_STYLE_STYLE2_2" data-name="Circle Button [SIZE=MEDIUM][STATE=DEFAULT][STYLE=STYLE2]" transform="translate(279 622)">
          <g id="Area_SIZE:MEDIUM_STATE:DEFAULT_STYLE:STYLE2_2" data-name="Area [SIZE:MEDIUM][STATE:DEFAULT][STYLE:STYLE2]" fill="#fff" stroke="#3e3e3e" stroke-width="2">
            <rect width="48" height="48" rx="24" stroke="none"/>
            <rect x="1" y="1" width="46" height="46" rx="23" fill="none"/>
          </g>
          <g id="Icon_ICON_feather_linkedin_SIZE_MEDIUM_STATE_DEFAULT_STYLE_STYLE2_" data-name="Icon [ICON=feather/linkedin][SIZE=MEDIUM][STATE=DEFAULT][STYLE=STYLE2]" transform="translate(14 14)">
            <rect id="Area_ICON:feather_linkedin_SIZE:MEDIUM_STATE:DEFAULT_STYLE:STYLE2_" data-name="Area [ICON:feather/linkedin][SIZE:MEDIUM][STATE:DEFAULT][STYLE:STYLE2]" width="20" height="20" fill="rgba(253,73,198,0.35)" opacity="0"/>
            <g id="Icon-2" data-name="Icon" transform="translate(-1 -1)">
              <path id="_1650e569-905c-4b31-bedc-d243480b2800" data-name="1650e569-905c-4b31-bedc-d243480b2800" d="M16,8a6,6,0,0,1,6,6v7H18V14a2,2,0,0,0-4,0v7H10V14A6,6,0,0,1,16,8Z" transform="translate(-1 -0.5)" fill="none" stroke="#3e3e3e" stroke-linecap="round" stroke-linejoin="round" stroke-width="2"/>
              <rect id="de9862ed-ab05-4be1-801c-ae4fab2137a0" width="4" height="12" transform="translate(1 8.5)" fill="none" stroke="#3e3e3e" stroke-linecap="round" stroke-linejoin="round" stroke-width="2"/>
              <circle id="_316df731-861e-4759-bbbb-b14526b1a624" data-name="316df731-861e-4759-bbbb-b14526b1a624" cx="2" cy="2" r="2" transform="translate(1 1.5)" fill="none" stroke="#3e3e3e" stroke-linecap="round" stroke-linejoin="round" stroke-width="2"/>
            </g>
          </g>
        </g>
        <g id="Circle_Button_SIZE_MEDIUM_STATE_DEFAULT_STYLE_STYLE2_3" data-name="Circle Button [SIZE=MEDIUM][STATE=DEFAULT][STYLE=STYLE2]" transform="translate(215 622)">
          <g id="Area_SIZE:MEDIUM_STATE:DEFAULT_STYLE:STYLE2_3" data-name="Area [SIZE:MEDIUM][STATE:DEFAULT][STYLE:STYLE2]" fill="#fff" stroke="#3e3e3e" stroke-width="2">
            <rect width="48" height="48" rx="24" stroke="none"/>
            <rect x="1" y="1" width="46" height="46" rx="23" fill="none"/>
          </g>
          <g id="Icon_ICON_feather_facebook_SIZE_MEDIUM_STATE_DEFAULT_STYLE_STYLE2_" data-name="Icon [ICON=feather/facebook][SIZE=MEDIUM][STATE=DEFAULT][STYLE=STYLE2]" transform="translate(14 14)">
            <rect id="Area_ICON:feather_facebook_SIZE:MEDIUM_STATE:DEFAULT_STYLE:STYLE2_" data-name="Area [ICON:feather/facebook][SIZE:MEDIUM][STATE:DEFAULT][STYLE:STYLE2]" width="20" height="20" fill="rgba(253,73,198,0.35)" opacity="0"/>
            <g id="Icon-3" data-name="Icon" transform="translate(-1 -1)">
              <path id="_269cb74c-0644-4e5d-888b-f89ac4bd102b" data-name="269cb74c-0644-4e5d-888b-f89ac4bd102b" d="M18,2H15a5,5,0,0,0-5,5v3H7v4h3v8h4V14h3l1-4H14V7a1,1,0,0,1,1-1h3Z" transform="translate(-1.5 -1)" fill="none" stroke="#3e3e3e" stroke-linecap="round" stroke-linejoin="round" stroke-width="2"/>
            </g>
          </g>
        </g>
        <g id="Circle_Button_SIZE_MEDIUM_STATE_DEFAULT_STYLE_STYLE2_4" data-name="Circle Button [SIZE=MEDIUM][STATE=DEFAULT][STYLE=STYLE2]" transform="translate(151 622)">
          <g id="Area_SIZE:MEDIUM_STATE:DEFAULT_STYLE:STYLE2_4" data-name="Area [SIZE:MEDIUM][STATE:DEFAULT][STYLE:STYLE2]" fill="#fff" stroke="#3e3e3e" stroke-width="2">
            <rect width="48" height="48" rx="24" stroke="none"/>
            <rect x="1" y="1" width="46" height="46" rx="23" fill="none"/>
          </g>
          <g id="Icon_ICON_custom_google_SIZE_MEDIUM_STATE_DEFAULT_STYLE_STYLE2_" data-name="Icon [ICON=custom/google][SIZE=MEDIUM][STATE=DEFAULT][STYLE=STYLE2]" transform="translate(14 14)">
            <rect id="Area_ICON:custom_google_SIZE:MEDIUM_STATE:DEFAULT_STYLE:STYLE2_" data-name="Area [ICON:custom/google][SIZE:MEDIUM][STATE:DEFAULT][STYLE:STYLE2]" width="20" height="20" fill="rgba(253,73,198,0.35)" opacity="0"/>
            <g id="Icon-4" data-name="Icon" transform="translate(-1 -1)">
              <path id="_0e59611d-9053-44af-9d1f-0fe4d3fdec55" data-name="0e59611d-9053-44af-9d1f-0fe4d3fdec55" d="M23.139,11.375h-.806v-.042h-9v4h5.652a6,6,0,1,1-1.671-6.481l2.828-2.828a9.963,9.963,0,1,0,3,5.351Z" transform="translate(-2.343 -2.334)" fill="none" stroke="#3e3e3e" stroke-linecap="round" stroke-linejoin="round" stroke-width="1.667"/>
              <path id="_6bb25b70-da68-4bb9-9297-b7616b64d715" data-name="6bb25b70-da68-4bb9-9297-b7616b64d715" d="M5.255,8.7l3.3,2.417a6.009,6.009,0,0,1,9.576-2.243l2.839-2.837A10.017,10.017,0,0,0,5.255,8.7Z" transform="translate(-3.108 -2.334)" fill="none" stroke="#3e3e3e" stroke-linecap="round" stroke-linejoin="round" stroke-width="1.667"/>
              <path id="ec82a7fe-9bea-471d-a193-89367f93acef" d="M14.1,31.379a9.988,9.988,0,0,0,6.729-2.606l-3.107-2.627a6.006,6.006,0,0,1-9.283-2.768L5.167,25.9A10.026,10.026,0,0,0,14.1,31.379Z" transform="translate(-3.071 -10.38)" fill="none" stroke="#3e3e3e" stroke-linecap="round" stroke-linejoin="round" stroke-width="1.667"/>
              <path id="_01f4a1be-9a64-402d-a207-25dc5c00e127" data-name="01f4a1be-9a64-402d-a207-25dc5c00e127" d="M29.84,16.708h-.808v-.041H20v4.014h5.672a6.046,6.046,0,0,1-2.051,2.8h0L26.727,26.1a9.711,9.711,0,0,0,3.307-7.43A10.066,10.066,0,0,0,29.84,16.708Z" transform="translate(-9.045 -7.71)" fill="none" stroke="#3e3e3e" stroke-linecap="round" stroke-linejoin="round" stroke-width="1.667"/>
            </g>
          </g>
        </g>
        <g id="_-_Sign_in_with_-" data-name="- Sign in with -" transform="translate(-191 44)">
          <line id="Line" x2="72" transform="translate(327 537.5)" fill="none" stroke="#cfcfcf" stroke-width="2"/>
          <line id="Line-2" data-name="Line" x2="72" transform="translate(527 537.5)" fill="none" stroke="#cfcfcf" stroke-width="2"/>
          <text id="Typography_TAG:UI_S_" data-name="Typography [TAG:UI_S]" transform="translate(466.5 542)" fill="#3d3d3d" font-size="13" font-family="NotoSans-Bold, Noto Sans" font-weight="700" letter-spacing="0.04em"><tspan x="-52.943" y="0">Or Sign In With</tspan></text>
        </g>
        <g id="Input_DISPLAY_ELEMENTS_Default_STATE_DEFAULT_" data-name="Input [DISPLAY_ELEMENTS=Default][STATE=DEFAULT]" transform="translate(108 428)">
          <g id="Area_DISPLAY_ELEMENTS:Default_STATE:DEFAULT_" data-name="Area [DISPLAY_ELEMENTS:Default][STATE:DEFAULT]" fill="#fff" stroke="#3e3e3e" stroke-width="2">
            <rect width="328" height="48" stroke="none"/>
            <rect x="1" y="1" width="326" height="46" fill="none"/>
          </g>
          <text id="Value" transform="translate(16 30)" fill="#3e3e3e" stroke="rgba(0,0,0,0)" stroke-miterlimit="10" stroke-width="1" font-size="16" font-family="NotoSans-SemiBold, Noto Sans" font-weight="600"><tspan x="0" y="0">Password</tspan></text>
        </g>
        <g id="Input_DISPLAY_ELEMENTS_Default_STATE_DEFAULT_2" data-name="Input [DISPLAY_ELEMENTS=Default][STATE=DEFAULT]" transform="translate(108 364)">
          <g id="Area_DISPLAY_ELEMENTS:Default_STATE:DEFAULT_2" data-name="Area [DISPLAY_ELEMENTS:Default][STATE:DEFAULT]" fill="#fff" stroke="#3e3e3e" stroke-width="2">
            <rect width="328" height="48" stroke="none"/>
            <rect x="1" y="1" width="326" height="46" fill="none"/>
          </g>
          <text id="Value-2" data-name="Value" transform="translate(16 30)" fill="#3e3e3e" stroke="rgba(0,0,0,0)" stroke-miterlimit="10" stroke-width="1" font-size="16" font-family="NotoSans-SemiBold, Noto Sans" font-weight="600"><tspan x="0" y="0">Email Address</tspan></text>
        </g>
        <g id="Input_DISPLAY_ELEMENTS_Default_STATE_DEFAULT_3" data-name="Input [DISPLAY_ELEMENTS=Default][STATE=DEFAULT]" transform="translate(108 300)">
          <g id="Area_DISPLAY_ELEMENTS:Default_STATE:DEFAULT_3" data-name="Area [DISPLAY_ELEMENTS:Default][STATE:DEFAULT]" fill="#fff" stroke="#3e3e3e" stroke-width="2">
            <rect width="156" height="48" stroke="none"/>
            <rect x="1" y="1" width="154" height="46" fill="none"/>
          </g>
          <text id="Value-3" data-name="Value" transform="translate(16 30)" fill="#3e3e3e" stroke="rgba(0,0,0,0)" stroke-miterlimit="10" stroke-width="1" font-size="16" font-family="NotoSans-SemiBold, Noto Sans" font-weight="600"><tspan x="0" y="0">First Name</tspan></text>
        </g>
        <g id="Input_DISPLAY_ELEMENTS_Default_STATE_DEFAULT_4" data-name="Input [DISPLAY_ELEMENTS=Default][STATE=DEFAULT]" transform="translate(280 300)">
          <g id="Area_DISPLAY_ELEMENTS:Default_STATE:DEFAULT_4" data-name="Area [DISPLAY_ELEMENTS:Default][STATE:DEFAULT]" fill="#fff" stroke="#3e3e3e" stroke-width="2">
            <rect width="156" height="48" stroke="none"/>
            <rect x="1" y="1" width="154" height="46" fill="none"/>
          </g>
          <text id="Value-4" data-name="Value" transform="translate(16 30)" fill="#3e3e3e" stroke="rgba(0,0,0,0)" stroke-miterlimit="10" stroke-width="1" font-size="16" font-family="NotoSans-SemiBold, Noto Sans" font-weight="600"><tspan x="0" y="0">Last Name</tspan></text>
        </g>
        <text id="Create_an_account_TAG:A_" data-name="Create an account [TAG:A]" transform="translate(250 263)" fill="#587fff" font-size="16" font-family="NotoSans-SemiBold, Noto Sans" font-weight="600"><tspan x="0" y="0">Sign In</tspan></text>
        <text id="New_user_TAG:H6_" data-name="New user? [TAG:H6]" transform="translate(108 263)" fill="#3d3d3d" font-size="16" font-family="NotoSans-Bold, Noto Sans" font-weight="700"><tspan x="0" y="0">Already an user?</tspan></text>
        <text id="Title_TAG:H4_" data-name="Title [TAG:H4]" transform="translate(108 221)" fill="#3d3d3d" font-size="32" font-family="NotoSans-Bold, Noto Sans" font-weight="700"><tspan x="0" y="0">Create An Account</tspan></text>
      </g>
      <g id="Circle_Button_SIZE_MEDIUM_STATE_DEFAULT_STYLE_STYLE2_5" data-name="Circle Button [SIZE=MEDIUM][STATE=DEFAULT][STYLE=STYLE2]" transform="translate(863 159)">
        <g id="Area_SIZE:MEDIUM_STATE:DEFAULT_STYLE:STYLE2_5" data-name="Area [SIZE:MEDIUM][STATE:DEFAULT][STYLE:STYLE2]" fill="#fff" stroke="#3e3e3e" stroke-width="2">
          <rect width="48" height="48" rx="24" stroke="none"/>
          <rect x="1" y="1" width="46" height="46" rx="23" fill="none"/>
        </g>
        <g id="Icon_ICON_feather_x_SIZE_MEDIUM_STATE_DEFAULT_STYLE_STYLE2_" data-name="Icon [ICON=feather/x][SIZE=MEDIUM][STATE=DEFAULT][STYLE=STYLE2]" transform="translate(14 14)">
          <rect id="Area_ICON:feather_x_SIZE:MEDIUM_STATE:DEFAULT_STYLE:STYLE2_" data-name="Area [ICON:feather/x][SIZE:MEDIUM][STATE:DEFAULT][STYLE:STYLE2]" width="20" height="20" fill="rgba(253,73,198,0.35)" opacity="0"/>
          <g id="Icon-5" data-name="Icon" transform="translate(-1 -1)">
            <line id="a25a5a87-e9e1-4394-acf6-88e44cd87ffb" x1="20" y2="20" transform="translate(1 1)" fill="none" stroke="#3e3e3e" stroke-linecap="round" stroke-linejoin="round" stroke-width="3.333"/>
            <line id="e4757d93-65df-42f9-a548-0d10c4702b7f" x2="20" y2="20" transform="translate(1 1)" fill="none" stroke="#3e3e3e" stroke-linecap="round" stroke-linejoin="round" stroke-width="3.333"/>
          </g>
        </g>
      </g>
    </g>
  </g>
</svg>
