<svg xmlns="http://www.w3.org/2000/svg" width="713" height="188" viewBox="0 0 713 188"><g transform="translate(-36 -1040)"><g transform="translate(-50 -1108)"><rect width="227" height="86" rx="4" transform="translate(86 2148)" fill="#229099" opacity="0.2"/><text transform="translate(101 2186)" fill="#0b111f" font-size="18" font-family="Montserrat-Medium, Montserrat" font-weight="500" letter-spacing="0.075em"><tspan x="0" y="0">What</tspan></text><text transform="translate(101 2209)" fill="#0b111f" font-size="14" font-family="Montserrat-Regular, Montserrat" letter-spacing="0.025em"><tspan x="0" y="0">problem are we solving?</tspan></text></g><g transform="translate(193 -1108)"><rect width="227" height="86" rx="4" transform="translate(86 2148)" fill="#229099" opacity="0.2"/><text transform="translate(101 2186)" fill="#0b111f" font-size="18" font-family="Montserrat-Medium, Montserrat" font-weight="500" letter-spacing="0.075em"><tspan x="0" y="0">Who</tspan></text><text transform="translate(101 2209)" fill="#0b111f" font-size="14" font-family="Montserrat-Regular, Montserrat" letter-spacing="0.025em"><tspan x="0" y="0">are we solving it for?</tspan></text></g><g transform="translate(436 -1108)"><rect width="227" height="86" rx="4" transform="translate(86 2148)" fill="#229099" opacity="0.2"/><text transform="translate(101 2186)" fill="#0b111f" font-size="18" font-family="Montserrat-Medium, Montserrat" font-weight="500" letter-spacing="0.075em"><tspan x="0" y="0">Why</tspan></text><text transform="translate(101 2209)" fill="#0b111f" font-size="14" font-family="Montserrat-Regular, Montserrat" letter-spacing="0.025em"><tspan x="0" y="0">are we solving it?</tspan></text></g><g transform="translate(-50 -1006)"><rect width="227" height="86" rx="4" transform="translate(86 2148)" fill="#229099" opacity="0.2"/><text transform="translate(101 2186)" fill="#0b111f" font-size="18" font-family="Montserrat-Medium, Montserrat" font-weight="500" letter-spacing="0.075em"><tspan x="0" y="0">How</tspan></text><text transform="translate(101 2209)" fill="#0b111f" font-size="14" font-family="Montserrat-Regular, Montserrat" letter-spacing="0.025em"><tspan x="0" y="0">are we going to solve it?</tspan></text></g><g transform="translate(193 -1006)"><rect width="227" height="86" rx="4" transform="translate(86 2148)" fill="#229099" opacity="0.2"/><text transform="translate(101 2186)" fill="#0b111f" font-size="18" font-family="Montserrat-Medium, Montserrat" font-weight="500" letter-spacing="0.075em"><tspan x="0" y="0">What</tspan></text><text transform="translate(101 2209)" fill="#0b111f" font-size="14" font-family="Montserrat-Regular, Montserrat" letter-spacing="0.025em"><tspan x="0" y="0">goals do you have?</tspan></text></g></g></svg>