<svg xmlns="http://www.w3.org/2000/svg" width="1222.332" height="180" viewBox="0 0 1222.332 180">
  <g id="user-stories" transform="translate(-115 -1856.721)">
    <g id="Group_8244" data-name="Group 8244" transform="translate(115 1856.721)">
      <path id="Path_2932" data-name="Path 2932" d="M5.206,0H221.794C224.669,0,227,1.848,227,4.128V175.872c0,2.28-2.331,4.128-5.206,4.128H5.206C2.331,180,0,178.152,0,175.872V4.128C0,1.848,2.331,0,5.206,0Z" fill="#e4dae2"/>
      <text id="As_a_buyer_I_want_to_know_more_so_that_I_can_shop_without_confusion." data-name="As a buyer, I want to know more, so that I can shop without confusion." transform="translate(22.839 24.673)" fill="#3e3e3e" font-size="14" font-family="Montserrat-Regular, Montserrat" letter-spacing="0.025em"><tspan x="0" y="14">As a buyer, I want to </tspan><tspan x="0" y="38">know more, so that I can </tspan><tspan x="0" y="62">shop without confusion.</tspan></text>
    </g>
    <g id="Group_8244-2" data-name="Group 8244" transform="translate(363.833 1856.721)">
      <path id="Path_2932-2" data-name="Path 2932" d="M5.206,0H221.794C224.669,0,227,1.848,227,4.128V175.872c0,2.28-2.331,4.128-5.206,4.128H5.206C2.331,180,0,178.152,0,175.872V4.128C0,1.848,2.331,0,5.206,0Z" transform="translate(0)" fill="#a1c8e9"/>
      <text id="As_a_buyer_I_want_to_find_one_product_one_problem_one_brand_product_type_quickly_to_save_time" data-name="As a buyer, I want to find one product / one problem / one brand / product type quickly to save time" transform="translate(22.839 24.673)" fill="#3e3e3e" font-size="14" font-family="Montserrat-Regular, Montserrat" letter-spacing="0.025em"><tspan x="0" y="14">As a buyer, I want to find </tspan><tspan x="0" y="38">one product / one </tspan><tspan x="0" y="62">problem / one brand / </tspan><tspan x="0" y="86">product type quickly to </tspan><tspan x="0" y="110">save time</tspan></text>
    </g>
    <g id="Group_8244-3" data-name="Group 8244" transform="translate(612.666 1856.721)">
      <path id="Path_2932-3" data-name="Path 2932" d="M5.206,0H221.794C224.669,0,227,1.848,227,4.128V175.872c0,2.28-2.331,4.128-5.206,4.128H5.206C2.331,180,0,178.152,0,175.872V4.128C0,1.848,2.331,0,5.206,0Z" transform="translate(0)" fill="#fff69b"/>
      <text id="As_a_buyer_I_want_to_see_all_relevant_list_of_products_in_order_to_compare_explore_to_choose." data-name="As a buyer, I want to see  all relevant list of products in order to compare / explore to choose." transform="translate(22.839 24.673)" fill="#3e3e3e" font-size="14" font-family="Montserrat-Regular, Montserrat" letter-spacing="0.025em"><tspan x="0" y="14" xml:space="preserve">As a buyer, I want to see  </tspan><tspan x="0" y="38">all relevant list of </tspan><tspan x="0" y="62">products in order to </tspan><tspan x="0" y="86">compare / explore to </tspan><tspan x="0" y="110">choose.</tspan></text>
    </g>
    <g id="Group_8244-4" data-name="Group 8244" transform="translate(861.499 1856.721)">
      <path id="Path_2932-4" data-name="Path 2932" d="M5.206,0H221.794C224.669,0,227,1.848,227,4.128V175.872c0,2.28-2.331,4.128-5.206,4.128H5.206C2.331,180,0,178.152,0,175.872V4.128C0,1.848,2.331,0,5.206,0Z" transform="translate(0)" fill="#f6c2d9"/>
      <text id="As_a_buyer_I_want_to_save_products_for_later_so_that_I_don_t_have_to_decide_immediately." data-name="As a buyer, I want to save products for later so that I don&apos;t have to decide immediately." transform="translate(22.839 24.673)" fill="#3e3e3e" font-size="14" font-family="Montserrat-Regular, Montserrat" letter-spacing="0.025em"><tspan x="0" y="14">As a buyer, I want to </tspan><tspan x="0" y="38">save products for later </tspan><tspan x="0" y="62">so that I don&apos;t have to </tspan><tspan x="0" y="86">decide immediately.</tspan></text>
    </g>
    <g id="Group_8244-5" data-name="Group 8244" transform="translate(1110.332 1856.721)">
      <path id="Path_2932-5" data-name="Path 2932" d="M5.206,0H221.794C224.669,0,227,1.848,227,4.128V175.872c0,2.28-2.331,4.128-5.206,4.128H5.206C2.331,180,0,178.152,0,175.872V4.128C0,1.848,2.331,0,5.206,0Z" transform="translate(0)" fill="#bcdfc9"/>
      <text id="As_a_buyer_I_want_to_try_the_product_to_see_if_it_suits_me_so_that_I_don_t_make_the_wrong_decision." data-name="As a buyer, I want to try the product to see if it suits me so that I don&apos;t make the wrong decision." transform="translate(22.839 24.673)" fill="#3e3e3e" font-size="14" font-family="Montserrat-Regular, Montserrat" letter-spacing="0.025em"><tspan x="0" y="14">As a buyer, I want to try </tspan><tspan x="0" y="38">the product to see if it </tspan><tspan x="0" y="62">suits me so that I don&apos;t </tspan><tspan x="0" y="86">make the wrong </tspan><tspan x="0" y="110">decision.</tspan></text>
    </g>
  </g>
</svg>
